<svg xmlns="http://www.w3.org/2000/svg" viewBox="0 0 128 128">
    <path d="M64 16.8c-26 0-47 21-47 47s21 47 47 47 47-21 47-47-21-47-47-47zm0 84c-20.4 0-37-16.6-37-37s16.6-37 37-37 37 16.6 37 37-16.6 37-37 37z"/>
    <path d="M77.5 59.5c-1.2-1.2-3.1-1.2-4.2 0L64 68.6l-9.3-9.3c-1.2-1.2-3.1-1.2-4.2 0-1.2 1.2-1.2 3.1 0 4.2l11.3 11.3c.6.6 1.4.9 2.1.9.8 0 1.5-.3 2.1-.9l11.3-11.3c1.2-1.1 1.2-3 0-4.2z"/>
    <style>
        path { fill: #000; }
        @media (prefers-color-scheme: dark) {
            path { fill: #fff; }
        }
    </style>
</svg>